<?xml version="1.0" encoding="utf-8"?>
<svg id="master-artboard" viewBox="0 0 1400 980" xmlns="http://www.w3.org/2000/svg" width="1400px" height="980px" version="1.1" style="shape-rendering:geometricPrecision; text-rendering:geometricPrecision; image-rendering:optimizeQuality; fill-rule:evenodd; clip-rule:evenodd"><g transform="matrix(1.9140623807907104, 0, 0, 1.9140623807907104, 210.00002197220874, 0.0000028484564609243535)"><g>
	<g>
		<g>
			<path d="M 406 210 A 20 20 0 0 1 386 230 A 20 20 0 0 1 366 210 A 20 20 0 0 1 386 190 A 20 20 0 0 1 406 210 Z" style="fill: rgb(92, 95, 127);"/>
			<path d="M432,40h-26V20c0-11.046-8.954-20-20-20c-11.046,0-20,8.954-20,20v20h-91V20c0-11.046-8.954-20-20-20&#10;&#9;&#9;&#9;&#9;c-11.046,0-20,8.954-20,20v20h-90V20c0-11.046-8.954-20-20-20s-20,8.954-20,20v20H80C35.888,40,0,75.888,0,120v312&#10;&#9;&#9;&#9;&#9;c0,44.112,35.888,80,80,80h153c11.046,0,20-8.954,20-20c0-11.046-8.954-20-20-20H80c-22.056,0-40-17.944-40-40V120&#10;&#9;&#9;&#9;&#9;c0-22.056,17.944-40,40-40h25v20c0,11.046,8.954,20,20,20s20-8.954,20-20V80h90v20c0,11.046,8.954,20,20,20s20-8.954,20-20V80h91&#10;&#9;&#9;&#9;&#9;v20c0,11.046,8.954,20,20,20c11.046,0,20-8.954,20-20V80h26c22.056,0,40,17.944,40,40v114c0,11.046,8.954,20,20,20&#10;&#9;&#9;&#9;&#9;c11.046,0,20-8.954,20-20V120C512,75.888,476.112,40,432,40z" style="fill: rgb(92, 95, 127);"/>
			<path d="M391,270c-66.72,0-121,54.28-121,121s54.28,121,121,121s121-54.28,121-121S457.72,270,391,270z M391,472&#10;&#9;&#9;&#9;&#9;c-44.663,0-81-36.336-81-81s36.337-81,81-81c44.663,0,81,36.336,81,81S435.663,472,391,472z" style="fill: rgb(92, 95, 127);"/>
			<path d="M420,371h-9v-21c0-11.046-8.954-20-20-20c-11.046,0-20,8.954-20,20v41c0,11.046,8.954,20,20,20h29&#10;&#9;&#9;&#9;&#9;c11.046,0,20-8.954,20-20C440,379.954,431.046,371,420,371z" style="fill: rgb(92, 95, 127);"/>
			<path d="M 319 210 A 20 20 0 0 1 299 230 A 20 20 0 0 1 279 210 A 20 20 0 0 1 299 190 A 20 20 0 0 1 319 210 Z" style="fill: rgb(92, 95, 127);"/>
			<path d="M 232 297 A 20 20 0 0 1 212 317 A 20 20 0 0 1 192 297 A 20 20 0 0 1 212 277 A 20 20 0 0 1 232 297 Z" style="fill: rgb(92, 95, 127);"/>
			<path d="M 145 210 A 20 20 0 0 1 125 230 A 20 20 0 0 1 105 210 A 20 20 0 0 1 125 190 A 20 20 0 0 1 145 210 Z" style="fill: rgb(92, 95, 127);"/>
			<path d="M 145 297 A 20 20 0 0 1 125 317 A 20 20 0 0 1 105 297 A 20 20 0 0 1 125 277 A 20 20 0 0 1 145 297 Z" style="fill: rgb(92, 95, 127);"/>
			<path d="M 145 384 A 20 20 0 0 1 125 404 A 20 20 0 0 1 105 384 A 20 20 0 0 1 125 364 A 20 20 0 0 1 145 384 Z" style="fill: rgb(92, 95, 127);"/>
			<path d="M 232 384 A 20 20 0 0 1 212 404 A 20 20 0 0 1 192 384 A 20 20 0 0 1 212 364 A 20 20 0 0 1 232 384 Z" style="fill: rgb(92, 95, 127);"/>
			<path d="M 232 210 A 20 20 0 0 1 212 230 A 20 20 0 0 1 192 210 A 20 20 0 0 1 212 190 A 20 20 0 0 1 232 210 Z" style="fill: rgb(92, 95, 127);"/>
		</g>
	</g>
</g><g>
</g><g>
</g><g>
</g><g>
</g><g>
</g><g>
</g><g>
</g><g>
</g><g>
</g><g>
</g><g>
</g><g>
</g><g>
</g><g>
</g><g>
</g></g></svg>